<svg xmlns="http://www.w3.org/2000/svg" width="520" height="330" viewBox="0 0 520 330" role="img" aria-label="American Express Gold Rose Gold Card"><defs><linearGradient id="bg" x1="0" x2="1"><stop offset="0" stop-color="#d8c14d"/><stop offset="0.52" stop-color="#c7b54b"/><stop offset="0.53" stop-color="#e6b4a7"/><stop offset="1" stop-color="#f0c6b8"/></linearGradient><linearGradient id="shine" x1="0" y1="0" x2="1" y2="1"><stop offset="0" stop-color="#fff" stop-opacity=".45"/><stop offset=".45" stop-color="#fff" stop-opacity="0"/><stop offset="1" stop-color="#000" stop-opacity=".1"/></linearGradient><filter id="shadow" x="-10%" y="-10%" width="120%" height="120%"><feDropShadow dx="0" dy="8" stdDeviation="9" flood-color="#000" flood-opacity=".28"/></filter></defs><rect x="8" y="8" width="504" height="314" rx="17" fill="url(#bg)" filter="url(#shadow)"/><rect x="8" y="8" width="504" height="314" rx="17" fill="url(#shine)"/><rect x="21" y="22" width="478" height="286" rx="12" fill="none" stroke="#1d1b16" stroke-opacity=".36" stroke-width="3"/><text x="260" y="62" text-anchor="middle" font-family="Arial, Helvetica, sans-serif" font-size="31" font-weight="900" fill="#151515">AMERICAN EXPRESS</text><rect x="54" y="103" width="68" height="52" rx="10" fill="#efe9d2" stroke="#777" stroke-opacity=".45"/><path d="M76 103v52M54 129h68" stroke="#aaa" stroke-width="3" opacity=".55"/><circle cx="260" cy="168" r="68" fill="none" stroke="#151515" stroke-width="5" opacity=".75"/><path d="M234 196c-21-15-27-52-8-78 16-22 43-31 72-24-18 9-29 22-33 40l31 3-33 11 34 16-37 1c3 18 13 29 33 38-23 7-43 4-59-7z" fill="#222" opacity=".82"/><path d="M226 151c24-9 52-11 83-6M226 173c24 8 52 10 83 5" stroke="#222" stroke-width="3" opacity=".55"/><text x="70" y="282" font-family="Arial, Helvetica, sans-serif" font-size="26" font-weight="700" fill="#1b1b1b">F WELTE</text><text x="420" y="172" font-family="Arial, Helvetica, sans-serif" font-size="26" font-weight="700" fill="#1b1b1b">7997</text><text x="420" y="210" font-family="Arial, Helvetica, sans-serif" font-size="24" font-weight="700" fill="#1b1b1b">09</text><path d="M410 130c15 10 15 28 0 38M425 120c24 18 24 43 0 61" fill="none" stroke="#1b1b1b" stroke-width="5" stroke-linecap="round" opacity=".8"/><text x="435" y="279" font-family="Arial, Helvetica, sans-serif" font-size="10" fill="#333">© AMEX</text></svg>